dataset
version=1
nRows=31
nColumns=39
inDegrees=no
endheader
time	sternoclavicular_r2	sternoclavicular_r3	unrotscap_r3	unrotscap_r2	acromioclavicular_r2	acromioclavicular_r3	acromioclavicular_r1	unrothum_r1	unrothum_r3	unrothum_r2	elv_angle	shoulder_elv	shoulder1_r2	shoulder_rot	elbow_flexion	pro_sup	deviation	flexion	cmc_abduction	cmc_flexion	mp_flexion	ip_flexion	mcp2_flexion	mcp2_abduction	pm2_flexion	md2_flexion	mcp3_flexion	mcp3_abduction	pm3_flexion	md3_flexion	mcp4_flexion	mcp4_abduction	pm4_flexion	md4_flexion	mcp5_flexion	mcp5_abduction	pm5_flexion	md5_flexion
5.795000	-0.036879	-0.378589	0.160705	0.198335	0.181188	0.089092	-0.155364	0.001089	0.032930	0.215629	0.204975	0.027437	0.146525	0.146525	1.386302	1.320071	0.000000	0.000000	0.000000	0.000000	0.000000	0.000000	0.000000	0.000000	0.000000	0.000000	0.000000	0.000000	0.000000	0.000000	0.000000	0.000000	0.000000	0.000000	0.000000	0.000000	0.000000	0.000000
5.800000	-0.036859	-0.378597	0.160729	0.198224	0.181064	0.089140	-0.155369	0.001097	0.032904	0.215495	0.204843	0.027437	0.146525	0.146525	1.386828	1.320051	0.000000	0.000000	0.000000	0.000000	0.000000	0.000000	0.000000	0.000000	0.000000	0.000000	0.000000	0.000000	0.000000	0.000000	0.000000	0.000000	0.000000	0.000000	0.000000	0.000000	0.000000	0.000000
5.805000	-0.036839	-0.378606	0.160753	0.198112	0.180941	0.089189	-0.155374	0.001107	0.032879	0.215360	0.204711	0.027437	0.146525	0.146525	1.387375	1.320030	0.000000	0.000000	0.000000	0.000000	0.000000	0.000000	0.000000	0.000000	0.000000	0.000000	0.000000	0.000000	0.000000	0.000000	0.000000	0.000000	0.000000	0.000000	0.000000	0.000000	0.000000	0.000000
5.810000	-0.036819	-0.378617	0.160776	0.198001	0.180818	0.089240	-0.155377	0.001119	0.032855	0.215225	0.204580	0.027437	0.146525	0.146525	1.387943	1.320007	0.000000	0.000000	0.000000	0.000000	0.000000	0.000000	0.000000	0.000000	0.000000	0.000000	0.000000	0.000000	0.000000	0.000000	0.000000	0.000000	0.000000	0.000000	0.000000	0.000000	0.000000	0.000000
5.815000	-0.036799	-0.378628	0.160799	0.197891	0.180695	0.089292	-0.155379	0.001133	0.032832	0.215090	0.204449	0.027437	0.146525	0.146525	1.388531	1.319982	0.000000	0.000000	0.000000	0.000000	0.000000	0.000000	0.000000	0.000000	0.000000	0.000000	0.000000	0.000000	0.000000	0.000000	0.000000	0.000000	0.000000	0.000000	0.000000	0.000000	0.000000	0.000000
5.820000	-0.036779	-0.378639	0.160822	0.197782	0.180573	0.089345	-0.155380	0.001149	0.032810	0.214955	0.204319	0.027437	0.146525	0.146525	1.389140	1.319954	0.000000	0.000000	0.000000	0.000000	0.000000	0.000000	0.000000	0.000000	0.000000	0.000000	0.000000	0.000000	0.000000	0.000000	0.000000	0.000000	0.000000	0.000000	0.000000	0.000000	0.000000	0.000000
5.825000	-0.036759	-0.378652	0.160844	0.197674	0.180452	0.089401	-0.155380	0.001168	0.032789	0.214820	0.204191	0.027437	0.146525	0.146525	1.389769	1.319925	0.000000	0.000000	0.000000	0.000000	0.000000	0.000000	0.000000	0.000000	0.000000	0.000000	0.000000	0.000000	0.000000	0.000000	0.000000	0.000000	0.000000	0.000000	0.000000	0.000000	0.000000	0.000000
5.830000	-0.036739	-0.378665	0.160866	0.197567	0.180331	0.089459	-0.155378	0.001189	0.032771	0.214686	0.204063	0.027437	0.146525	0.146525	1.390417	1.319894	0.000000	0.000000	0.000000	0.000000	0.000000	0.000000	0.000000	0.000000	0.000000	0.000000	0.000000	0.000000	0.000000	0.000000	0.000000	0.000000	0.000000	0.000000	0.000000	0.000000	0.000000	0.000000
5.835000	-0.036720	-0.378679	0.160887	0.197462	0.180212	0.089519	-0.155374	0.001213	0.032756	0.214551	0.203938	0.027437	0.146525	0.146525	1.391085	1.319861	0.000000	0.000000	0.000000	0.000000	0.000000	0.000000	0.000000	0.000000	0.000000	0.000000	0.000000	0.000000	0.000000	0.000000	0.000000	0.000000	0.000000	0.000000	0.000000	0.000000	0.000000	0.000000
5.840000	-0.036701	-0.378694	0.160907	0.197358	0.180094	0.089582	-0.155369	0.001240	0.032743	0.214418	0.203814	0.027437	0.146525	0.146525	1.391773	1.319826	0.000000	0.000000	0.000000	0.000000	0.000000	0.000000	0.000000	0.000000	0.000000	0.000000	0.000000	0.000000	0.000000	0.000000	0.000000	0.000000	0.000000	0.000000	0.000000	0.000000	0.000000	0.000000
5.845000	-0.036682	-0.378709	0.160926	0.197257	0.179977	0.089648	-0.155361	0.001269	0.032734	0.214284	0.203692	0.027437	0.146525	0.146525	1.392479	1.319788	0.000000	0.000000	0.000000	0.000000	0.000000	0.000000	0.000000	0.000000	0.000000	0.000000	0.000000	0.000000	0.000000	0.000000	0.000000	0.000000	0.000000	0.000000	0.000000	0.000000	0.000000	0.000000
5.850000	-0.036663	-0.378724	0.160945	0.197157	0.179862	0.089718	-0.155351	0.001301	0.032728	0.214152	0.203573	0.027437	0.146525	0.146525	1.393204	1.319749	0.000000	0.000000	0.000000	0.000000	0.000000	0.000000	0.000000	0.000000	0.000000	0.000000	0.000000	0.000000	0.000000	0.000000	0.000000	0.000000	0.000000	0.000000	0.000000	0.000000	0.000000	0.000000
5.855000	-0.036644	-0.378740	0.160962	0.197060	0.179749	0.089791	-0.155338	0.001336	0.032727	0.214020	0.203456	0.027437	0.146525	0.146525	1.393948	1.319708	0.000000	0.000000	0.000000	0.000000	0.000000	0.000000	0.000000	0.000000	0.000000	0.000000	0.000000	0.000000	0.000000	0.000000	0.000000	0.000000	0.000000	0.000000	0.000000	0.000000	0.000000	0.000000
5.860000	-0.036625	-0.378756	0.160978	0.196965	0.179637	0.089868	-0.155322	0.001374	0.032730	0.213889	0.203342	0.027437	0.146525	0.146525	1.394709	1.319665	0.000000	0.000000	0.000000	0.000000	0.000000	0.000000	0.000000	0.000000	0.000000	0.000000	0.000000	0.000000	0.000000	0.000000	0.000000	0.000000	0.000000	0.000000	0.000000	0.000000	0.000000	0.000000
5.865000	-0.036607	-0.378772	0.160994	0.196873	0.179527	0.089950	-0.155304	0.001415	0.032738	0.213759	0.203231	0.027437	0.146525	0.146525	1.395488	1.319621	0.000000	0.000000	0.000000	0.000000	0.000000	0.000000	0.000000	0.000000	0.000000	0.000000	0.000000	0.000000	0.000000	0.000000	0.000000	0.000000	0.000000	0.000000	0.000000	0.000000	0.000000	0.000000
5.870000	-0.036588	-0.378788	0.161008	0.196784	0.179419	0.090036	-0.155282	0.001459	0.032752	0.213630	0.203122	0.027437	0.146525	0.146525	1.396285	1.319574	0.000000	0.000000	0.000000	0.000000	0.000000	0.000000	0.000000	0.000000	0.000000	0.000000	0.000000	0.000000	0.000000	0.000000	0.000000	0.000000	0.000000	0.000000	0.000000	0.000000	0.000000	0.000000
5.875000	-0.036570	-0.378804	0.161020	0.196698	0.179313	0.090127	-0.155257	0.001506	0.032772	0.213502	0.203017	0.027437	0.146525	0.146525	1.397098	1.319526	0.000000	0.000000	0.000000	0.000000	0.000000	0.000000	0.000000	0.000000	0.000000	0.000000	0.000000	0.000000	0.000000	0.000000	0.000000	0.000000	0.000000	0.000000	0.000000	0.000000	0.000000	0.000000
5.880000	-0.036551	-0.378819	0.161032	0.196615	0.179210	0.090224	-0.155228	0.001556	0.032799	0.213375	0.202916	0.027437	0.146525	0.146525	1.397927	1.319475	0.000000	0.000000	0.000000	0.000000	0.000000	0.000000	0.000000	0.000000	0.000000	0.000000	0.000000	0.000000	0.000000	0.000000	0.000000	0.000000	0.000000	0.000000	0.000000	0.000000	0.000000	0.000000
5.885000	-0.036533	-0.378834	0.161042	0.196535	0.179108	0.090327	-0.155196	0.001609	0.032833	0.213248	0.202818	0.027437	0.146525	0.146525	1.398773	1.319423	0.000000	0.000000	0.000000	0.000000	0.000000	0.000000	0.000000	0.000000	0.000000	0.000000	0.000000	0.000000	0.000000	0.000000	0.000000	0.000000	0.000000	0.000000	0.000000	0.000000	0.000000	0.000000
5.890000	-0.036515	-0.378849	0.161051	0.196458	0.179009	0.090436	-0.155159	0.001665	0.032876	0.213123	0.202723	0.027437	0.146525	0.146525	1.399635	1.319369	0.000000	0.000000	0.000000	0.000000	0.000000	0.000000	0.000000	0.000000	0.000000	0.000000	0.000000	0.000000	0.000000	0.000000	0.000000	0.000000	0.000000	0.000000	0.000000	0.000000	0.000000	0.000000
5.895000	-0.036496	-0.378862	0.161058	0.196384	0.178911	0.090552	-0.155117	0.001723	0.032926	0.212998	0.202633	0.027437	0.146525	0.146525	1.400511	1.319314	0.000000	0.000000	0.000000	0.000000	0.000000	0.000000	0.000000	0.000000	0.000000	0.000000	0.000000	0.000000	0.000000	0.000000	0.000000	0.000000	0.000000	0.000000	0.000000	0.000000	0.000000	0.000000
5.900000	-0.036478	-0.378875	0.161063	0.196315	0.178816	0.090675	-0.155072	0.001785	0.032986	0.212875	0.202546	0.027437	0.146525	0.146525	1.401403	1.319257	0.000000	0.000000	0.000000	0.000000	0.000000	0.000000	0.000000	0.000000	0.000000	0.000000	0.000000	0.000000	0.000000	0.000000	0.000000	0.000000	0.000000	0.000000	0.000000	0.000000	0.000000	0.000000
5.905000	-0.036459	-0.378886	0.161068	0.196248	0.178724	0.090806	-0.155021	0.001849	0.033055	0.212752	0.202464	0.027437	0.146525	0.146525	1.402309	1.319198	0.000000	0.000000	0.000000	0.000000	0.000000	0.000000	0.000000	0.000000	0.000000	0.000000	0.000000	0.000000	0.000000	0.000000	0.000000	0.000000	0.000000	0.000000	0.000000	0.000000	0.000000	0.000000
5.910000	-0.036441	-0.378896	0.161070	0.196186	0.178633	0.090945	-0.154965	0.001916	0.033134	0.212630	0.202385	0.027437	0.146525	0.146525	1.403229	1.319137	0.000000	0.000000	0.000000	0.000000	0.000000	0.000000	0.000000	0.000000	0.000000	0.000000	0.000000	0.000000	0.000000	0.000000	0.000000	0.000000	0.000000	0.000000	0.000000	0.000000	0.000000	0.000000
5.915000	-0.036422	-0.378904	0.161071	0.196127	0.178544	0.091092	-0.154904	0.001986	0.033224	0.212508	0.202311	0.027437	0.146525	0.146525	1.404162	1.319075	0.000000	0.000000	0.000000	0.000000	0.000000	0.000000	0.000000	0.000000	0.000000	0.000000	0.000000	0.000000	0.000000	0.000000	0.000000	0.000000	0.000000	0.000000	0.000000	0.000000	0.000000	0.000000
5.920000	-0.036402	-0.378910	0.161071	0.196072	0.178458	0.091249	-0.154838	0.002058	0.033326	0.212387	0.202241	0.027437	0.146525	0.146525	1.405109	1.319011	0.000000	0.000000	0.000000	0.000000	0.000000	0.000000	0.000000	0.000000	0.000000	0.000000	0.000000	0.000000	0.000000	0.000000	0.000000	0.000000	0.000000	0.000000	0.000000	0.000000	0.000000	0.000000
5.925000	-0.036383	-0.378914	0.161069	0.196020	0.178373	0.091415	-0.154766	0.002132	0.033440	0.212266	0.202175	0.027437	0.146525	0.146525	1.406068	1.318946	0.000000	0.000000	0.000000	0.000000	0.000000	0.000000	0.000000	0.000000	0.000000	0.000000	0.000000	0.000000	0.000000	0.000000	0.000000	0.000000	0.000000	0.000000	0.000000	0.000000	0.000000	0.000000
5.930000	-0.036363	-0.378916	0.161065	0.195973	0.178291	0.091591	-0.154688	0.002208	0.033566	0.212146	0.202113	0.027437	0.146525	0.146525	1.407039	1.318879	0.000000	0.000000	0.000000	0.000000	0.000000	0.000000	0.000000	0.000000	0.000000	0.000000	0.000000	0.000000	0.000000	0.000000	0.000000	0.000000	0.000000	0.000000	0.000000	0.000000	0.000000	0.000000
5.935000	-0.036342	-0.378915	0.161060	0.195929	0.178210	0.091778	-0.154604	0.002286	0.033706	0.212025	0.202056	0.027437	0.146525	0.146525	1.408022	1.318811	0.000000	0.000000	0.000000	0.000000	0.000000	0.000000	0.000000	0.000000	0.000000	0.000000	0.000000	0.000000	0.000000	0.000000	0.000000	0.000000	0.000000	0.000000	0.000000	0.000000	0.000000	0.000000
5.940000	-0.036321	-0.378911	0.161053	0.195888	0.178131	0.091976	-0.154513	0.002367	0.033860	0.211905	0.202003	0.027437	0.146525	0.146525	1.409016	1.318742	0.000000	0.000000	0.000000	0.000000	0.000000	0.000000	0.000000	0.000000	0.000000	0.000000	0.000000	0.000000	0.000000	0.000000	0.000000	0.000000	0.000000	0.000000	0.000000	0.000000	0.000000	0.000000
5.945000	-0.036300	-0.378904	0.161044	0.195852	0.178053	0.092186	-0.154416	0.002448	0.034028	0.211784	0.201954	0.027437	0.146525	0.146525	1.410021	1.318671	0.000000	0.000000	0.000000	0.000000	0.000000	0.000000	0.000000	0.000000	0.000000	0.000000	0.000000	0.000000	0.000000	0.000000	0.000000	0.000000	0.000000	0.000000	0.000000	0.000000	0.000000	0.000000
